# xmcd
#
# Track frame offsets:
#	150
#	20373
#	37003
#	53796
#	72225
#	91359
#	110607
#	128154
#	142986
#	160349
#	178768
#	194850
#	212487
#	230571
#	248780
#	267356
#	286163
#	304513
#	337173
#
# Disc length: 4689 seconds
#
# Revision: 1
# Processed by: cddbd v1.5.2PL0 Copyright (c) Steve Scherf et al.
# Submitted via: audiograbber 1.82.01
#
DISCID=1e124f13
DTITLE=Various Artist - Kuschelrock 20 - CD 1
DYEAR=2006
DGENRE=Blues
TTITLE0=EROS RAMAZZOTTI and ANASTACIA - BELONG TO YOU (ILL RITMO DELLA PASSIONE)
TTITLE1=KELLY CLARKSON - BECOUSE OF YOU
TTITLE2=DIDO - LIFE FOR RENT
TTITLE3=XAVIER NAIDOO - DIESER WEG
TTITLE4=CELINE DION - POUR QUE TU M'AIMES ENCORE
TTITLE5=CHRISTINA AGUILERA - IMPOSSIBLE
TTITLE6=SUZANNE VEGA - LUKA
TTITLE7=SIMPLY RED - HOME
TTITLE8=ALICIA KEYS - IF I AIN'T GOT YOU
TTITLE9=SARAH CONNOR - MUSIC IS THE KEY
TTITLE10=MARC TERENCI - YOU COMPETE MY SOUL
TTITLE11=SÖHNE MANNHEIMS - VIELLEICHT
TTITLE12=SILBERMOND - UNENDLICH
TTITLE13=WESTLIFE - YOU RAISE ME UP
TTITLE14=NICK LACHEY - WATH'S LEFT OF ME
TTITLE15=DELIA GOODREM - LOST WITHOUT YOU
TTITLE16=PAUL YOUNG - HUNGRY HEART
TTITLE17=GEORG MICHAEL - COWBOYS AND ANGELS
TTITLE18=KATIE MELUA - IT'S ONLY PAIN
EXTD=
EXTT0=
EXTT1=
EXTT2=
EXTT3=
EXTT4=
EXTT5=
EXTT6=
EXTT7=
EXTT8=
EXTT9=
EXTT10=
EXTT11=
EXTT12=
EXTT13=
EXTT14=
EXTT15=
EXTT16=
EXTT17=
EXTT18=
PLAYORDER=
